<svg xmlns="http://www.w3.org/2000/svg" width="151" height="60" viewBox="0 0 151 60">
  <defs>
    <style>
      .cls-1 {
        fill: #fff;
      }

      .cls-1, .cls-2, .cls-3 {
        stroke: #707070;
      }

      .cls-2 {
        fill: #707070;
        font-size: 16px;
        font-family: SegoeUI, Segoe UI;
      }

      .cls-3, .cls-5 {
        fill: none;
      }

      .cls-4 {
        stroke: none;
      }
    </style>
  </defs>
  <g id="Edit_Rooms" data-name="Edit Rooms" transform="translate(-306 -123)">
    <g id="Rectangle_229" data-name="Rectangle 229" class="cls-1" transform="translate(306 123)">
      <path class="cls-4" d="M6,0H145a6,6,0,0,1,6,6V60a0,0,0,0,1,0,0H0a0,0,0,0,1,0,0V6A6,6,0,0,1,6,0Z"/>
      <path class="cls-5" d="M6,.5H145A5.5,5.5,0,0,1,150.5,6V59a.5.5,0,0,1-.5.5H1A.5.5,0,0,1,.5,59V6A5.5,5.5,0,0,1,6,.5Z"/>
    </g>
    <text id="Edit_Rooms-2" data-name="Edit Rooms" class="cls-2" transform="translate(369 173)"><tspan x="0" y="0">Edit Rooms</tspan></text>
    <g id="Ellipse_5" data-name="Ellipse 5" class="cls-1" transform="translate(333 154)">
      <circle class="cls-4" cx="2.5" cy="2.5" r="2.5"/>
      <circle class="cls-5" cx="2.5" cy="2.5" r="2"/>
    </g>
    <g id="Rectangle_239" data-name="Rectangle 239" class="cls-3" transform="translate(312 134)">
      <rect class="cls-4" width="28" height="44" rx="8"/>
      <rect class="cls-5" x="0.5" y="0.5" width="27" height="43" rx="7.5"/>
    </g>
  </g>
</svg>
