<svg xmlns="http://www.w3.org/2000/svg" width="151" height="60" viewBox="0 0 151 60">
  <defs>
    <style>
      .cls-1 {
        fill: #fff;
      }

      .cls-1, .cls-2, .cls-3 {
        stroke: #707070;
      }

      .cls-2 {
        fill: #707070;
        font-size: 16px;
        font-family: SegoeUI, Segoe UI;
      }

      .cls-3, .cls-5 {
        fill: none;
      }

      .cls-4 {
        stroke: none;
      }
    </style>
  </defs>
  <g id="Item_Editor" data-name="Item Editor" transform="translate(-457 -123)">
    <g id="Rectangle_230" data-name="Rectangle 230" class="cls-1" transform="translate(457 123)">
      <path class="cls-4" d="M6,0H145a6,6,0,0,1,6,6V60a0,0,0,0,1,0,0H0a0,0,0,0,1,0,0V6A6,6,0,0,1,6,0Z"/>
      <path class="cls-5" d="M6,.5H145A5.5,5.5,0,0,1,150.5,6V59a.5.5,0,0,1-.5.5H1A.5.5,0,0,1,.5,59V6A5.5,5.5,0,0,1,6,.5Z"/>
    </g>
    <text id="Item_Editor-2" data-name="Item Editor" class="cls-2" transform="translate(520 173)"><tspan x="0" y="0">Item Editor</tspan></text>
    <g id="Rectangle_242" data-name="Rectangle 242" class="cls-3" transform="translate(463 134)">
      <rect class="cls-4" width="28" height="44" rx="8"/>
      <rect class="cls-5" x="0.5" y="0.5" width="27" height="43" rx="7.5"/>
    </g>
    <line id="Line_74" data-name="Line 74" class="cls-3" x2="22" transform="translate(465.5 166.5)"/>
    <line id="Line_75" data-name="Line 75" class="cls-3" x2="22" transform="translate(465.5 169.5)"/>
    <line id="Line_76" data-name="Line 76" class="cls-3" x2="11" transform="translate(465.5 172.5)"/>
  </g>
</svg>
